<?xml version="1.0" standalone="no"?>
<!DOCTYPE svg PUBLIC "-//W3C//DTD SVG 20010904//EN"
 "http://www.w3.org/TR/2001/REC-SVG-20010904/DTD/svg10.dtd">
<svg version="1.0" xmlns="http://www.w3.org/2000/svg"
 width="512.000000pt" height="512.000000pt" viewBox="0 0 512.000000 512.000000"
 preserveAspectRatio="xMidYMid meet">

<g transform="translate(0.000000,512.000000) scale(0.100000,-0.100000)"
fill="#fff" stroke="none">
<path d="M320 3559 c-70 -14 -163 -65 -210 -115 -23 -25 -56 -75 -73 -112
l-32 -67 0 -705 0 -705 32 -67 c58 -123 161 -204 292 -228 74 -14 4388 -14
4462 0 131 24 234 105 292 228 l32 67 0 705 0 705 -32 67 c-58 123 -161 204
-292 228 -68 13 -4406 12 -4471 -1z m700 -721 c34 -95 65 -176 69 -180 4 -4
35 70 70 165 35 94 67 176 72 181 12 13 211 -102 202 -117 -4 -7 -61 -75 -126
-152 -66 -76 -115 -141 -109 -143 9 -3 261 44 350 65 22 5 22 5 22 -116 0 -90
-3 -121 -12 -121 -7 0 -89 14 -182 30 -93 17 -175 30 -182 28 -6 -2 46 -68
117 -148 99 -111 126 -147 116 -156 -23 -22 -189 -114 -196 -110 -4 3 -36 84
-71 181 -36 96 -67 175 -71 175 -3 0 -34 -76 -68 -168 -35 -93 -66 -175 -71
-182 -6 -9 -34 4 -109 50 l-101 62 49 57 c179 207 202 236 188 239 -8 2 -88
-11 -177 -27 -90 -17 -167 -31 -171 -31 -5 0 -9 54 -9 121 0 121 0 121 23 116
80 -19 340 -68 343 -65 2 3 -52 71 -121 153 l-125 149 78 44 c42 24 86 50 97
58 11 7 25 13 31 13 6 1 39 -77 74 -171z m1099 -12 c35 -97 67 -173 71 -169 4
4 36 86 71 181 35 94 67 172 72 172 4 0 52 -26 107 -57 l99 -57 -22 -26 c-12
-14 -70 -82 -129 -152 -60 -69 -108 -128 -108 -131 0 -3 280 50 358 68 22 5
22 5 22 -115 0 -66 -3 -120 -7 -120 -4 0 -85 14 -181 31 -96 16 -178 29 -184
27 -5 -2 49 -70 121 -150 l131 -147 -95 -56 c-52 -30 -101 -58 -108 -61 -10
-4 -33 46 -82 181 -37 102 -69 184 -71 183 -1 -2 -32 -84 -70 -183 -37 -99
-69 -182 -70 -184 -4 -5 -204 112 -204 120 0 3 56 71 125 151 69 81 125 148
125 151 0 2 -80 -11 -177 -29 -98 -19 -184 -34 -190 -34 -10 0 -13 31 -13 120
0 66 1 120 3 120 2 0 82 -16 177 -35 95 -19 180 -35 187 -35 8 0 -43 68 -113
150 -69 83 -124 154 -120 157 16 16 192 112 201 109 6 -1 39 -82 74 -180z
m1034 172 c2 -7 30 -85 62 -173 32 -88 61 -163 64 -167 4 -4 35 70 70 165 35
94 68 176 72 181 6 7 209 -98 209 -108 0 -2 -56 -70 -125 -152 -69 -81 -125
-151 -125 -154 0 -4 82 10 183 31 100 21 185 39 190 39 4 0 7 -54 7 -120 0
-89 -3 -120 -12 -120 -7 0 -87 13 -178 30 -91 16 -173 30 -183 30 -12 0 24
-48 112 -147 71 -81 128 -150 125 -154 -10 -17 -198 -119 -204 -112 -5 4 -36
86 -71 181 -35 94 -66 172 -69 172 -3 0 -33 -75 -68 -167 -34 -93 -66 -174
-71 -181 -6 -10 -32 1 -109 48 l-102 61 118 137 c153 179 147 171 125 166 -36
-8 -346 -64 -354 -64 -5 0 -9 54 -9 121 0 121 0 121 23 116 82 -20 340 -68
343 -64 2 2 -52 71 -120 153 l-125 148 77 44 c42 24 86 50 97 58 26 17 42 17
48 2z m1387 -998 l0 -120 -320 0 -320 0 0 120 0 120 320 0 320 0 0 -120z"/>
</g>
</svg>
