<?xml version="1.0" standalone="no"?>
<!DOCTYPE svg PUBLIC "-//W3C//DTD SVG 20010904//EN"
 "http://www.w3.org/TR/2001/REC-SVG-20010904/DTD/svg10.dtd">
<svg version="1.0" xmlns="http://www.w3.org/2000/svg"
 width="512.000000pt" height="512.000000pt" viewBox="0 0 512.000000 512.000000"
 preserveAspectRatio="xMidYMid meet">

<g transform="translate(0.000000,512.000000) scale(0.100000,-0.100000)"
stroke="none">
<path d="M1585 4129 c-123 -25 -249 -115 -315 -225 -72 -120 -69 -54 -69
-1364 -1 -1017 1 -1184 14 -1234 58 -223 240 -366 465 -366 146 0 127 -11
1121 611 503 314 936 587 963 607 61 44 128 134 156 210 28 72 37 200 20 273
-20 87 -76 183 -140 242 -78 72 -1883 1199 -1965 1227 -72 25 -181 33 -250 19z
m171 -334 c110 -57 1829 -1142 1847 -1167 11 -14 22 -49 25 -76 6 -65 -23
-117 -86 -159 -78 -50 -1734 -1085 -1777 -1110 -77 -44 -164 -24 -219 50 -21
28 -21 29 -24 1190 l-2 1162 22 45 c17 33 35 51 68 68 57 28 85 28 146 -3z"/>
</g>
</svg>
