<?xml version="1.0" standalone="no"?>
<!DOCTYPE svg PUBLIC "-//W3C//DTD SVG 20010904//EN"
 "http://www.w3.org/TR/2001/REC-SVG-20010904/DTD/svg10.dtd">
<svg version="1.0" xmlns="http://www.w3.org/2000/svg"
 width="512.000000pt" height="512.000000pt" viewBox="0 0 512.000000 512.000000"
 preserveAspectRatio="xMidYMid meet">

<g transform="translate(0.000000,512.000000) scale(0.100000,-0.100000)"
 stroke="none">
<path d="M2312 5110 c-778 -75 -1469 -487 -1888 -1125 -212 -323 -338 -658
-401 -1065 -25 -164 -25 -518 1 -695 40 -282 120 -540 247 -794 254 -511 651
-908 1160 -1160 250 -125 518 -208 794 -248 183 -26 545 -24 730 5 278 44 498
113 750 237 256 126 440 254 638 444 658 635 924 1586 693 2481 -48 187 -97
319 -187 500 -377 758 -1084 1274 -1924 1401 -150 23 -468 33 -613 19z m598
-191 c394 -55 767 -211 1090 -453 119 -89 319 -282 415 -401 277 -343 451
-749 510 -1190 19 -141 22 -438 5 -570 -111 -901 -697 -1644 -1545 -1960 -256
-95 -511 -139 -810 -139 -384 0 -712 75 -1043 239 -723 358 -1201 1026 -1314
1835 -19 138 -16 476 6 625 132 905 767 1654 1636 1929 339 107 690 136 1050
85z"/>
<path d="M3935 3641 c-16 -10 -455 -445 -975 -965 l-945 -946 -407 407 -408
408 -42 -1 c-55 -2 -98 -46 -98 -102 0 -35 18 -55 458 -494 429 -429 459 -458
492 -458 19 0 47 8 61 18 14 9 472 465 1017 1013 955 960 992 998 992 1034 0
49 -15 74 -55 91 -44 18 -54 18 -90 -5z"/>
</g>
</svg>
