<?xml version="1.0" standalone="no"?>
<!DOCTYPE svg PUBLIC "-//W3C//DTD SVG 20010904//EN"
 "http://www.w3.org/TR/2001/REC-SVG-20010904/DTD/svg10.dtd">
<svg version="1.0" xmlns="http://www.w3.org/2000/svg"
 width="512.000000pt" height="512.000000pt" viewBox="0 0 512.000000 512.000000"
 preserveAspectRatio="xMidYMid meet">

<g transform="translate(0.000000,512.000000) scale(0.100000,-0.100000)"
 stroke="none">
<path d="M500 4625 l-495 -495 492 -492 493 -493 140 140 140 140 -252 253
-253 252 1355 -3 c1353 -3 1355 -3 1435 -24 184 -50 343 -140 469 -266 87 -87
144 -170 202 -291 75 -159 86 -222 91 -523 l5 -263 200 0 200 0 -5 278 c-4
228 -8 293 -25 370 -63 288 -179 499 -387 707 -204 205 -392 310 -685 383
l-105 26 -1375 3 -1374 4 254 254 255 255 -140 140 -140 140 -495 -495z"/>
<path d="M403 2283 c4 -229 8 -294 25 -371 63 -288 179 -499 387 -707 206
-207 413 -321 703 -387 l97 -22 1370 -3 1369 -4 -254 -254 -255 -255 140 -140
140 -140 495 495 495 495 -492 492 -493 493 -140 -140 -140 -140 252 -252 253
-253 -1316 0 c-1134 0 -1328 2 -1404 15 -320 56 -584 252 -729 542 -85 169
-106 288 -106 589 l0 224 -201 0 -201 0 5 -277z"/>
</g>
</svg>
