<svg version="1.1" id="Layer_1" xmlns="http://www.w3.org/2000/svg" xmlns:xlink="http://www.w3.org/1999/xlink" x="0px" y="0px"
	 width="100%" viewBox="0 0 512 512" enable-background="new 0 0 512 512" xml:space="preserve">
<path opacity="1.000000" stroke="none" 
	d="
M265.532043,1.000000 
	C272.608215,5.279642 277.839355,10.477195 278.964630,18.836403 
	C279.391205,22.004995 279.308319,25.136742 279.322906,28.282480 
	C279.378540,40.267281 279.380920,52.252613 279.338074,64.237518 
	C279.290558,77.524025 269.907867,87.246109 257.106659,87.359406 
	C244.374222,87.472107 234.756424,77.727440 234.669983,64.469658 
	C234.589676,52.152206 234.992874,39.821590 234.551331,27.519447 
	C234.146866,16.250895 237.547943,7.333346 247.806961,1.271501 
	C253.688034,1.000000 259.376068,1.000000 265.532043,1.000000 
z"/>
<path  opacity="1.000000" stroke="none" 
	d="
M249.466858,513.000000 
	C237.310486,507.417328 234.103149,497.604950 234.552734,485.453674 
	C234.995697,473.481537 234.606796,461.480072 234.664978,449.491852 
	C234.728867,436.330231 244.401123,426.558807 257.159302,426.657837 
	C269.745087,426.755524 279.271088,436.434174 279.333252,449.318695 
	C279.395874,462.305908 279.229095,475.295074 279.383667,488.280762 
	C279.513336,499.174530 275.928741,507.776154 265.272644,512.800415 
	C259.977905,513.000000 254.955811,513.000000 249.466858,513.000000 
z"/>
<path opacity="1.000000" stroke="none" 
	d="
M513.000000,264.533142 
	C507.671051,276.257660 498.363373,279.847046 486.489960,279.465973 
	C474.178680,279.070801 461.844849,279.412964 449.521271,279.354309 
	C436.338562,279.291534 426.668732,269.733093 426.658936,256.861816 
	C426.649414,244.355545 436.387268,234.743744 449.306488,234.666107 
	C462.296051,234.588058 475.287231,234.738037 488.276184,234.618561 
	C499.132782,234.518707 507.776733,238.067123 512.799622,248.728180 
	C513.000000,254.022095 513.000000,259.044189 513.000000,264.533142 
z"/>
<path opacity="1.000000" stroke="none" 
	d="
M1.000000,248.467606 
	C5.568930,241.437622 10.883982,235.811722 19.404428,234.961731 
	C23.531347,234.550034 27.717276,234.670074 31.876829,234.656906 
	C42.709396,234.622589 53.542385,234.603683 64.374779,234.660385 
	C77.608574,234.729645 87.388199,244.309647 87.344055,257.064423 
	C87.300217,269.730835 77.403625,279.313507 64.211426,279.366943 
	C51.545719,279.418213 38.876514,279.208832 26.214705,279.437866 
	C15.096671,279.638916 6.392448,276.026337 1.254003,265.220703 
	C1.000000,259.645081 1.000000,254.290146 1.000000,248.467606 
z"/>
<path opacity="1.000000" stroke="none" 
	d="
M134.254242,190.317352 
	C151.009384,160.275589 175.105850,139.126633 206.795898,126.730904 
	C226.118149,119.172905 246.308243,116.191376 266.873444,117.805588 
	C294.029266,119.937096 318.863037,128.768143 340.876892,145.385925 
	C360.314056,160.058624 374.914215,178.407257 384.767090,200.491882 
	C390.458313,213.248306 393.851105,226.711838 395.456482,240.687622 
	C397.647369,259.760345 395.996155,278.360931 390.709564,296.775909 
	C386.257355,312.284424 379.176697,326.413544 369.652924,339.380371 
	C354.662781,359.789856 335.481750,375.063416 312.385193,385.237305 
	C299.918427,390.728790 286.737152,393.863312 273.132996,395.496613 
	C254.403503,397.745239 236.086594,396.026154 218.020767,391.039673 
	C202.500366,386.755829 188.344727,379.592590 175.294678,370.172119 
	C145.489395,348.656525 127.152786,319.522980 120.073441,283.800629 
	C113.641975,251.347488 118.451866,220.048798 134.254242,190.317352 
M188.304794,191.805267 
	C182.861481,197.020264 178.729950,203.214752 174.910400,209.652908 
	C164.170502,227.755783 160.226013,247.519043 162.672256,268.130219 
	C165.316010,290.405609 175.207947,309.459442 191.545853,325.170593 
	C212.922470,345.727203 238.593735,354.439117 267.614838,351.310974 
	C294.377319,348.426270 316.207184,335.433899 332.659729,313.843353 
	C347.907135,293.834320 354.171539,271.031677 351.360626,246.356094 
	C348.221191,218.796524 334.630951,196.695511 312.262604,180.120056 
	C292.484222,165.463791 270.030914,160.042389 245.965363,162.701874 
	C223.662399,165.166595 204.449295,174.958588 188.304794,191.805267 
z"/>
<path opacity="1.000000" stroke="none" 
	d="
M142.132355,129.569977 
	C135.790787,144.921021 116.760651,148.451477 104.226784,136.342163 
	C93.595955,126.071442 82.491264,116.188515 73.277855,104.533524 
	C66.693710,96.204575 67.448990,82.438698 75.513176,75.095802 
	C83.675446,67.663589 96.354561,66.367294 104.601479,73.365089 
	C116.644516,83.584015 127.751060,94.789696 138.145325,106.697456 
	C144.007599,113.413330 144.321228,121.059410 142.132355,129.569977 
z"/>
<path opacity="1.000000" stroke="none" 
	d="
M428.645508,396.364807 
	C432.521667,400.693115 436.781403,404.145142 440.106659,408.590424 
	C445.986969,416.451477 446.803223,424.795715 442.661926,433.336334 
	C438.967834,440.954651 432.053589,444.696747 423.792419,445.206696 
	C417.252319,445.610443 411.205872,443.077026 406.602051,438.584564 
	C395.896057,428.137329 384.634949,418.184448 375.228302,406.494049 
	C368.210022,397.771790 369.132141,384.548035 376.783356,376.842102 
	C384.581787,368.987885 397.673553,368.447754 406.819489,375.453125 
	C414.784729,381.554108 421.087860,389.362518 428.645508,396.364807 
z"/>
<path opacity="1.000000" stroke="none" 
	d="
M441.720947,78.606934 
	C447.452026,91.645172 446.183990,99.832283 436.431183,109.617874 
	C426.474854,119.607605 417.097534,130.223618 406.003052,139.025970 
	C397.773102,145.555618 384.572418,144.756516 377.178650,137.491119 
	C369.537445,129.982635 368.369904,116.731369 374.523560,108.259590 
	C380.429688,100.128578 388.239288,93.815132 395.077118,86.574974 
	C397.816620,83.674324 400.894836,81.088287 403.573029,78.136017 
	C413.508453,67.183853 430.712524,64.253014 441.720947,78.606934 
z"/>
<path opacity="1.000000" stroke="none" 
	d="
M108.592781,437.683838 
	C104.442947,440.705170 100.712143,443.543152 95.743828,444.559509 
	C87.011711,446.345917 77.120148,442.712708 72.213791,435.298431 
	C67.660011,428.416931 67.691185,416.161804 72.964752,409.945435 
	C83.613365,397.393036 95.120537,385.603882 107.812897,375.118896 
	C116.405746,368.020447 129.754562,369.227386 137.381805,376.977295 
	C144.808151,384.523102 145.712311,397.685181 139.025772,406.279480 
	C131.444641,416.023560 121.915962,423.939117 113.380112,432.791382 
	C111.879051,434.348053 110.353851,435.881470 108.592781,437.683838 
z"/>
</svg>